/* XPM */
static char *ZGVtb24_[] = {
/* columns rows colors chars-per-pixel */
"32 32 160 2 ",
"   c #040302",
".  c #0B0303",
"X  c #0B0A01",
"o  c #060708",
"O  c #060909",
"+  c #080B0B",
"@  c #120404",
"#  c #1A0605",
"$  c #110D00",
"%  c #170C0B",
"&  c #190C0C",
"*  c #141100",
"=  c #181606",
"-  c #121517",
";  c #1A1714",
":  c #290707",
">  c #210907",
",  c #220D0C",
"<  c #2C0C09",
"1  c #220606",
"2  c #320908",
"3  c #390A09",
"4  c #221F06",
"5  c #37100B",
"6  c #39100C",
"7  c #2E1412",
"8  c #311614",
"9  c #321A19",
"0  c #282202",
"q  c #362B01",
"w  c #3C3504",
"e  c #181E22",
"r  c #1C2327",
"t  c #1D2529",
"y  c gray14",
"u  c #39302F",
"i  c #212B30",
"p  c #253034",
"a  c #29353B",
"s  c #343232",
"d  c #3C3A3B",
"f  c #420B0B",
"g  c #401A17",
"h  c #4B1A17",
"j  c #4B1814",
"k  c #541712",
"l  c #5F1A15",
"z  c #5C1C18",
"x  c #600F0F",
"c  c #661110",
"v  c #6C1B16",
"b  c #641E18",
"n  c #601A15",
"m  c #7A1212",
"M  c #7F1E19",
"N  c #443B02",
"B  c #4F3D02",
"V  c #4B221F",
"C  c #64221C",
"Z  c #6F221B",
"A  c #74211B",
"S  c #7C221B",
"D  c #413433",
"F  c #443C3C",
"G  c #524401",
"H  c #2D3B42",
"J  c #303E45",
"K  c #314046",
"L  c #36464E",
"P  c #374850",
"I  c #3A4C55",
"U  c #3E515A",
"Y  c #454445",
"T  c #504C4C",
"R  c #41555E",
"E  c #585B5C",
"W  c #495F6A",
"Q  c #425660",
"!  c #4B616D",
"~  c #4F6773",
"^  c #516975",
"/  c #556F7B",
"(  c #676767",
")  c #6C6969",
"_  c #706F6F",
"`  c #7E7D7D",
"'  c #851414",
"]  c #8C1515",
"[  c #971717",
"{  c #9B1717",
"}  c #9A1A19",
"|  c #AB1B1B",
" . c #A61C1B",
".. c #B31B1B",
"X. c #BA1C1C",
"o. c #8F271F",
"O. c #86251D",
"+. c #92281F",
"@. c #AC251F",
"#. c #962920",
"$. c #9C2A22",
"%. c #A22D23",
"&. c #A82E25",
"*. c #AE3026",
"=. c #B43227",
"-. c #BC3429",
";. c #CE2321",
":. c #D72D27",
">. c #DB2F28",
",. c #C3362A",
"<. c #C9362B",
"1. c #CE392D",
"2. c #D53128",
"3. c #DB352C",
"4. c #D1392D",
"5. c #D83B2F",
"6. c #DF3D30",
"7. c #E5362C",
"8. c #E7392F",
"9. c #E53F32",
"0. c #EF3F33",
"q. c #816F01",
"w. c #916E05",
"e. c #EC4133",
"r. c #F44335",
"t. c #A38D00",
"y. c #B68F04",
"u. c #A89100",
"i. c #B59C00",
"p. c #C39805",
"a. c #C5AA00",
"s. c #DAA806",
"d. c #D7B900",
"f. c #DCBE00",
"g. c #F4BB07",
"h. c #DFC000",
"j. c #E0C000",
"k. c #F6D400",
"l. c #FFDB00",
"z. c #FFD203",
"x. c #5D7A87",
"c. c #5F7C8A",
"v. c #597581",
"b. c #607D8B",
"n. c #8E8E8E",
"m. c #848889",
"M. c #8F9090",
"N. c #979797",
"B. c #989898",
"V. c gray67",
"C. c #A7ACAD",
"Z. c #A7AEB2",
"A. c #BCBCBC",
"S. c #C7C7C7",
"D. c #DFDFDF",
"F. c #D6D8D9",
"G. c #DADFE1",
"H. c #E3E3E3",
"J. c #F4F4F4",
"K. c None",
/* pixels */
"K.K.  K.K.K.K.K.K.K.K.K.K.K.K.K.K.K.K.K.K.K.K.K.K.K.K.K.K.X K.K.",
"K.K.  K.K.K.K.K.K.K.K.K.K.o o o o o o K.K.K.K.K.K.K.K.K.K.  K.K.",
"K.  q   K.K.K.K.K.K.o + p U ! ^ ^ ! P t o O K.K.K.K.K.K.X q K.K.",
"K.K.G i.X   K.K.o + U c.b.b.c.b.b.b.b.b.v.H O O K.K.X X y.G K.K.",
"K.K.$ l.j.N   X + ~ c.b.b.b.c.p p b.b.b.b.b.U o   X N f.g.$ K.K.",
"K.K.X t.l.l.k.G w + c.c.b.b.Q % % R b.b.b.R + w q.d.l.z.w.$ K.K.",
"K.K.K.$ h.l.l.l.u.- b.b.b.c.- $.#.- c.b.b.U = t.l.l.l.s.$ K.K.K.",
"K.K.K.K.* a.l.l.= U b.c.c.K , e.e., K b.b.^ i 0 k.l.p.= K.K.K.K.",
"K.K.K.K.    N 4 t c.c.b.U . 4.r.r.4.o R b.b.! ; 0 B     K.K.K.K.",
"K.K.K.K.o a L I c.c.b.P o -.r.r.r.r.-.. P b.b.b.I a e O K.K.K.K.",
"K.K.K.K.o ! b.c.b./ t % ,.r.r.r.r.r.r.,.& r / b.b./ a O K.K.K.K.",
"K.K.  X   x.b.^ a   b e.r.r.r.r.r.r.r.r.e.b   a ^ b.L   .   K.K.",
"K.@ $.v O J - . z 4.r.r.r.r.e.e.e.9.r.r.r.r.5.n   - r o v m # K.",
"K.. *.e.. j %.9.r.r.r.r.r.r.l o.o.l r.r.r.r.r.r.e.%.j . 3.[ @ K.",
"K.X v r.n =.@ 5.0.r.r.r.r.r.2 &.&.< r.r.r.r.r.9.5.. =.n >.x @ K.",
"K.K.< r.r.r.k       % 9 S b > r.e.> b S 9 %       k r.r.;.: K.K.",
"K.K.  9.r.r.v _ J.H.S.y Y K 9 r.r.8 Y Y y S.H.D.E Z r.0.X.  K.K.",
"K.K.. -.r.r.A d A.J.J.B.F.Z.& r.r.& S.D.B.J.J.C.s A r.9.[ @ K.K.",
"K.K.. &.r.r.9.Z & X u ) m.Y V r.r.h T M.( s . ; Z e.e.8.] @ K.K.",
"K.K.. =.r.r.r.r.r.1.$.A V C 6.r.r.8.C V A $.1.r.r.r.r.7.] # K.K.",
"K.K.@ *.O.1.r.r.r.r.r.9.A r.r.r.r.r.r.A e.r.r.r.r.r.1.' ] # K.K.",
"K.K.. > # %.r.#.o.r.r.-.# e.S r.r.A e.# -.r.r.+.#.r.$.@ 1 @ K.K.",
"K.K.K.K.. %.9.  # k 9.e.< 3   =.=.  5 < e.e.k @   2.' . K.K.K.K.",
"K.K.K.K.. v 0.@ ] f . O.4.+.S # # O.+.1.S @ 3 ] @ >.x . K.K.K.K.",
"K.K.K.K.K.. 1.$.# ..{ 3   8 z S S v 8   3 { ..# $.| . K.K.K.K.K.",
"K.K.K.K.K.K.. <.v # | m u V.` _ ) b.V.u m | # v  .@ K.K.K.K.K.K.",
"K.K.K.K.K.K.K.. -.S @ : M.J.J.J.J.J.J.N.: @ M  .@ K.K.K.K.K.K.K.",
"K.K.K.K.K.K.K.K.. -.$.. _ H.` F F ` H.) . $.} . K.K.K.K.K.K.K.K.",
"K.K.K.K.K.K.K.K.K.. %.1.8 X h +.@.h   7 <.' . K.K.K.K.K.K.K.K.K.",
"K.K.K.K.K.K.K.K.K.K.  S 9.,.r.e.e.r.-.5.c . K.K.K.K.K.K.K.K.K.K.",
"K.K.K.K.K.K.K.K.K.K.K.. 6 ,.<.< < ,.@.2 @ K.K.K.K.K.K.K.K.K.K.K.",
"K.K.K.K.K.K.K.K.K.K.K.K.  . . . . . @ . K.K.K.K.K.K.K.K.K.K.K.K."
};
