/* XPM */
static char *ZmluaXNo[] = {
/* columns rows colors chars-per-pixel */
"32 32 63 1 ",
"  c #5A314D",
". c #4D3450",
"X c #5F3650",
"o c #732B45",
"O c #732D44",
"+ c #742C45",
"@ c #742F47",
"# c #792840",
"$ c #7A2841",
"% c #61334C",
"& c #72374F",
"* c #6D3750",
"= c #6B3952",
"- c #713852",
"; c #49536F",
": c #5E526D",
"> c #4A5471",
", c #4C5773",
"< c #4E5A74",
"1 c #5D5973",
"2 c #585F79",
"3 c #61536C",
"4 c #61556E",
"5 c #65566E",
"6 c #55617B",
"7 c #59647D",
"8 c #9D1F34",
"9 c #BF1B2A",
"0 c #A81D30",
"q c #A91F32",
"w c #82253D",
"e c #87253C",
"r c #8B243A",
"t c #81283F",
"y c #952137",
"u c #942237",
"i c #952A3E",
"p c #9B293C",
"a c #A52034",
"s c #AC2032",
"d c #A92234",
"f c #A22538",
"g c #AB2739",
"h c #B32233",
"j c #BF2533",
"k c #CB1D2C",
"l c #D3202C",
"z c #D7212D",
"x c #D5212E",
"c c #8A2C41",
"v c #A23147",
"b c #BC3245",
"n c #C23346",
"m c #E53241",
"M c #E63443",
"N c #5F6A83",
"B c #646F86",
"V c #687389",
"C c #727E93",
"Z c #828C9F",
"A c #9DA9B5",
"S c #B7C3CB",
"D c None",
/* pixels */
"DDDDD6DDDDDDDDDDDDDDDDDDDDDDDDDD",
"DDDDDZ7DDDDDDDDDDDDDDDDDDDDDDDDD",
"DDDDDZ1-------------&DDDDDDDDDDD",
"DDDDDZ5MMMMMMMMMMMMMnDDDDDDDDDDD",
"DDDDDZ4zzzzzzzzzzzzzsDDDDDDDDDDD",
"DDDDDZ4zzzzzzzzzzzzzsDDDDDDDDDDD",
"DDDDDZ4zzzzzzzzzzzzzsX=======*DD",
"DDDDDZ4zzzzzzzzzzzzzsvmmmmmmmbDD",
"DDDDDZ4zzzzzzzzzzzzzspzzzzzzzdDD",
"DDDDDZ4zzzzzzzzzzzzzspzzzzzzzdDD",
"DDDDDZ4zzzzzzzzzzzzzspzzzzzzzdDD",
"DDDDDZ4zzzzzzzzzzzzzspzzzzzzzdDD",
"DDDDDZ4zzzzzzzzzzzzzspzzzzzzzdDD",
"DDDDDZ3kkkkkkkkkkkkkqpzzzzzzzdDD",
"DDDDDZ:88888888reeee#izzzzzzzdDD",
"DDDDDZ2DDDDDDDD%ggf# jzzzzzzzdDD",
"DDDDDZ7DDDDDDDD@z9tczzzzzzzzzdDD",
"DDDDDZ7DDDDDDDD+0OhkkkkkkkkkkqDD",
"DDDDDZ7DDDDDDDD.oyuyyyyyuuuuuwDD",
"DDDDDZ7DDDDDDDDDDDDDDDDDDDDDDDDD",
"DDDDDZ7DDDDDDDDDDDDDDDDDDDDDDDDD",
"DDDDDZ7DDDDDDDDDDDDDDDDDDDDDDDDD",
"DDDDDZ7DDDDDDDDDDDDDDDDDDDDDDDDD",
"DDDDDZ7DDDDDDDDDDDDDDDDDDDDDDDDD",
"DDDDDZ7DDDDDDDDDDDDDDDDDDDDDDDDD",
"DDDDDZ7DDDDDDDDDDDDDDDDDDDDDDDDD",
"DDDDDZ7DDDDDDDDDDDDDDDDDDDDDDDDD",
"DDDDDZ7DDDDDDDDDDDDDDDDDDDDDDDDD",
"DDDDDZ7DDDDDDDDDDDDDDDDDDDDDDDDD",
"DD>>>N<>>DDDDDDDDDDDDDDDDDDDDDDD",
"DDASSSSSSVDDDDDDDDDDDDDDDDDDDDDD",
"DDBCCCCCC,DDDDDDDDDDDDDDDDDDDDDD"
};
