/* XPM */
static char *cGl4aWwtZnJhbWUtMA__[] = {
/* columns rows colors chars-per-pixel */
"32 32 138 2 ",
"   c #040302",
".  c #0B0403",
"X  c #0B0A01",
"o  c #060708",
"O  c #060909",
"+  c #080B0B",
"@  c #120404",
"#  c #1A0605",
"$  c #110D00",
"%  c #170C0B",
"&  c #190C0C",
"*  c #141100",
"=  c #181301",
"-  c #181709",
";  c #121517",
":  c #191111",
">  c #1A1D18",
",  c #290707",
"<  c #210907",
"1  c #220D0C",
"2  c #2C0C09",
"3  c #220606",
"4  c #320908",
"5  c #390A09",
"6  c #221F06",
"7  c #37100B",
"8  c #39100C",
"9  c #2E1412",
"0  c #311614",
"q  c #321A19",
"w  c #242002",
"e  c #2B2401",
"r  c #362B01",
"t  c #3C3504",
"y  c #181E22",
"u  c #1C2327",
"i  c #1D2529",
"p  c gray14",
"a  c #39302F",
"s  c #212B30",
"d  c #253034",
"f  c #29353B",
"g  c #343232",
"h  c #3C3E3F",
"j  c #3B3636",
"k  c #420B0B",
"l  c #471612",
"z  c #401A17",
"x  c #4B1A17",
"c  c #4E1D19",
"v  c #4B1612",
"b  c #541712",
"n  c #5F1A15",
"m  c #5B1D18",
"M  c #600F0F",
"N  c #601A15",
"B  c #6C1815",
"V  c #641E18",
"C  c #7A1212",
"Z  c #7F1E19",
"A  c #443B02",
"S  c #4F3D02",
"D  c #4B221F",
"F  c #64221C",
"G  c #74211B",
"H  c #79221B",
"J  c #413433",
"K  c #443C3C",
"L  c #524401",
"P  c #2D3B42",
"I  c #303E45",
"U  c #314046",
"Y  c #36464E",
"T  c #374850",
"R  c #3A4C55",
"E  c #3E515A",
"W  c #454445",
"Q  c #504C4C",
"!  c #41555E",
"~  c #585B5C",
"^  c #425660",
"/  c #495F6A",
"(  c #4B616D",
")  c #4F6773",
"_  c #516975",
"`  c #556F7B",
"'  c #6C6A69",
"]  c #706F6F",
"[  c #7E7D7D",
"{  c #8C1515",
"}  c #841414",
"|  c #971717",
" . c #9B1717",
".. c #AD1A1A",
"X. c #B31B1B",
"o. c #BA1C1C",
"O. c #86251D",
"+. c #9D2A22",
"@. c #A22D23",
"#. c #A92F25",
"$. c #AE3026",
"%. c #B33127",
"&. c #B93328",
"*. c #D50000",
"=. c #CE2321",
"-. c #DB2F28",
";. c #DA342B",
":. c #E33E31",
">. c #816F01",
",. c #916E05",
"<. c #E94033",
"1. c #F44335",
"2. c #A38D00",
"3. c #B68F04",
"4. c #A89100",
"5. c #B59C00",
"6. c #C39805",
"7. c #C5AA00",
"8. c #DAA806",
"9. c #D7B900",
"0. c #DCBE00",
"q. c #F4BB07",
"w. c #DFC000",
"e. c #E0C000",
"r. c #F6D400",
"t. c #FFD203",
"y. c #FFDB00",
"u. c #FFEB3B",
"i. c #597581",
"p. c #5D7A87",
"a. c #5F7C8A",
"s. c #607D8B",
"d. c #8E8E8E",
"f. c gray67",
"g. c #E6E6E6",
"h. c gray96",
"j. c None",
"k. c black",
/* pixels */
"j.j.  k.k.k.k.k.j.j.j.j.j.j.j.j.j.j.j.j.j.j.j.j.j.j.j.j.j.X j.j.",
"j.j.  j.k.k.k.k.j.j.j.j.j.O o o o o O j.j.j.j.j.j.j.j.j.j.  j.j.",
"j.  r   k.k.k.k.j.j.o O d E / _ _ ( T i o O j.j.j.j.j.j.X r j.j.",
"j.j.L 5.X   k.k.o + E p.s.s.s.s.s.s.s.s.i.P O + j.j.. X 3.L j.j.",
"k.k.$ y.e.L     + ) s.s.s.s.s.s d s.s.s.s.s.E o   . A e.q.$ k.k.",
"k.k.X 2.y.y.r.L t + s.s.s.s.^ % % ! s.s.s.! X t >.9.y.t.,.$ k.k.",
"k.k.k.$ w.y.y.y.4.; s.s.s.s.; u.u.; a.s.s.E - 4.y.y.y.8.$ k.k.k.",
"k.k.k.k.* 7.y.y.- E s.s.s.I 1 u.u.1 U a.s._ s 6 r.y.6.= j.k.k.k.",
"k.k.k.k.    A w i a.s.s.! . u.u.u.u.o ! s.s.( > e S     j.j.j.j.",
"k.k.k.k.  f Y R a.s.s.T o u.u.u.u.u.u.. T s.s.s.R f y o j.j.j.j.",
"j.j.k.k.o ( s.s.a.` i % u.u.u.u.u.u.u.u.% u ` s.s.` f O j.j.j.j.",
"j.j.  .   p.s._ f   u.u.u.u.u.u.u.u.u.u.u.u.  d ` p.Y   .   j.j.",
"j.@ +.G   P ; o u.u.u.u.u.u.u.u.u.u.u.u.u.u.u.u.o ; u o B C # j.",
"j.X $.<.. v u.u.u.u.u.u.u.u.n u.u.n u.u.u.u.u.u.u.@.l . ;.| @ j.",
"j.. G 1.n %.. u.u.u.u.u.u.u.2 u.u.2 u.u.u.u.u.u.u.@ u.N -.M @ j.",
"j.j.2 1.u.u.b       % q H V < u.u.< V H q %       b u.u.=., j.j.",
"j.j.  <.u.u.G ] *.*.*.p W h q u.u.0 W W p *.*.*.~ G u.u.o.  j.j.",
"j.j.. &.u.u.B j *.*.*.*.*.*.: u.u.% *.*.*.*.*.*.g G u.u.| + j.j.",
"j.j.. #.u.u.u.G & X g *.*.W D u.u.c Q *.*.g . : G u.u.u.{ @ j.j.",
"j.j.@ $.u.u.u.u.u.u.u.u.D F u.u.u.u.F D u.u.u.u.u.u.u.u.{ # j.j.",
"j.j.@ $.O.u.u.u.u.u.u.u.H u.u.u.u.u.u.H u.u.u.u.u.u.u.} { # j.j.",
"j.j.. < % @.u.u.u.u.u.u.# u.H u.u.H u.& u.u.u.u.u.u.+.@ 3 @ j.j.",
"j.j.j.j.. @.u.  # b u.u., 7   u.u.  5 2 u.u.b # o u.} . j.j.j.j.",
"j.j.j.j.. B u.@ { k . u.u.u.u.# # u.u.u.u.. k } @ u.M . j.j.j.j.",
"j.j.j.j.j.. u.u.# X. .5   9 m H H m 0   5  .X.# u.u.. j.j.j.j.j.",
"j.j.j.j.j.j.. u.u.# ..C J f.[ ' ' [ f.a C ..# u.u.@ j.j.j.j.j.j.",
"j.j.j.j.j.j.j.. u.u.@ , d.h.h.h.h.h.h.d., @ u.u.. j.j.j.j.j.j.j.",
"j.j.j.j.j.j.j.j.. u.u.. ] g.[ K K [ g.] . u.u.. j.j.j.j.j.j.j.j.",
"j.j.j.j.j.j.j.j.j.. u.u.9 o x u.u.x   9 u.u.. j.j.j.j.j.j.j.j.j.",
"j.j.j.j.j.j.j.j.j.j.  u.u.u.u.u.u.u.u.u.u.. j.j.j.j.j.j.j.j.j.j.",
"j.j.j.j.j.j.j.j.j.j.j.. 5 u.u.2 2 u.u.4 @ j.j.j.j.j.j.j.j.j.j.j.",
"j.j.j.j.j.j.j.j.j.j.j.j.  . . . . . @ . j.j.j.j.j.j.j.j.j.j.j.j."
};
