/* XPM */
static char *cGl4aWwtZnJhbWUtMCslMjg1JTI5[] = {
/* columns rows colors chars-per-pixel */
"32 32 131 2 ",
"   c #020100",
".  c #0A0600",
"X  c #0E0900",
"o  c #120C00",
"O  c #1A0F00",
"+  c #151000",
"@  c #181500",
"#  c #1E1A00",
"$  c #241400",
"%  c #211C00",
"&  c #2C1E00",
"*  c #391E00",
"=  c #2D2200",
"-  c #302000",
";  c #3C2200",
":  c #352E00",
">  c #3D3201",
",  c #472E00",
"<  c #492F00",
"1  c #5B2F00",
"2  c #423501",
"3  c #4B3101",
"4  c #443B00",
"5  c #5E3100",
"6  c #513E02",
"7  c #5E3900",
"8  c #663400",
"9  c #6A3600",
"0  c #623C00",
"q  c #743B00",
"w  c #4E4300",
"e  c #544401",
"r  c #564900",
"t  c #5C4F00",
"y  c #5F5200",
"u  c #6D4100",
"i  c #764100",
"p  c #784700",
"a  c #794800",
"s  c #635600",
"d  c #675900",
"f  c #6D5E00",
"g  c #6F6000",
"h  c #766600",
"j  c #7E6103",
"k  c #7C6B00",
"l  c #874500",
"z  c #8C4800",
"x  c #935701",
"c  c #9F5C01",
"v  c #AC5700",
"b  c #A05C01",
"n  c #826504",
"m  c #836D01",
"M  c #847100",
"N  c #897501",
"B  c #A26101",
"V  c #B56B01",
"C  c #A37D05",
"Z  c #CA6600",
"A  c #CC6A00",
"S  c #D06A00",
"D  c #CD7000",
"F  c #CE7B01",
"G  c #D17300",
"H  c #DE7000",
"J  c #D27C01",
"K  c #DB7B01",
"L  c #E67700",
"P  c #E67A00",
"I  c #948000",
"U  c #9A8500",
"Y  c #9E8800",
"T  c #A58E00",
"R  c #A79000",
"E  c #AA9300",
"W  c #BE9106",
"Q  c #B29A00",
"!  c #BE9B03",
"~  c #BAA000",
"^  c #D68001",
"/  c #DA8201",
"(  c #EA8501",
")  c #E78A01",
"_  c #EC8C01",
"`  c #C1A700",
"'  c #CDA604",
"]  c #C5AA00",
"[  c #C9AD00",
"{  c #CFB300",
"}  c #D6B900",
"|  c #DDBF00",
" . c #E0B504",
".. c #ECB307",
"X. c #EAB207",
"o. c #E7BB04",
"O. c #EBBF04",
"+. c #E2C300",
"@. c #E4C500",
"#. c #E5C600",
"$. c #E6C600",
"%. c #E7C700",
"&. c #E5C600",
"*. c #ECC702",
"=. c #E8C800",
"-. c #EACA00",
";. c #ECCC00",
":. c #EDCC00",
">. c #EECD00",
",. c #EDCC01",
"<. c #FEC507",
"1. c #F6CA03",
"2. c #FDC805",
"3. c #FECD04",
"4. c #FDC905",
"5. c #F3D200",
"6. c #F4D001",
"7. c #F5D300",
"8. c #F6D300",
"9. c #FFD203",
"0. c #FFD303",
"q. c #FFD004",
"w. c #FFD103",
"e. c #FCD900",
"r. c #FFD901",
"t. c #FEDB00",
"y. c #FFDB00",
"u. c #FFDC00",
"i. c #FFDC00",
"p. c None",
"a. c black",
/* pixels */
"p.p.p.p.p.p.p.p.p.p.    o O X     . o .     p.p.p.p.p.p.p.p.p.p.",
"p.p.p.p.p.p.p.p.  o   $ q V J ) ) / V p # . .   p.p.p.p.p.p.p.p.",
"p.p.p.p.p.p.  .   5 J _ B 0 3 = & , 0 B _ / 7       p.p.p.p.p.p.",
"p.p.p.p.p.  o * D J 3 . > m T ` ` T N 2 . 3 F ^ ; .   p.p.p.p.p.",
"p.p.p.p.  o 8 ( 0 X j -.u.i.i.Q Q u.u.u.;.M X 7 _ u .   p.p.p.p.",
"p.p.p.  . l K & w o.u.] g i.i.@.#.u.u.u.u.u.;.e & / x .   p.p.p.",
"p.p.  o 8 K + n 1.i.i.i.i.i.u.i.u.u.r.u.u.u.u.r.m + / u .   p.p.",
"p.p.. * L & j 3.g [ i.i.i.i.8.+ u.R s u.u.u.u.u.r.M & _ ; . p.p.",
"p.    Z 0 6 2.u.u.u.u.u.i.u.;.  i.U e u.u.u.u.u.u.u.r 7 ^     p.",
"p.o 5 A X X.6.u.u.u.u.#.s % o   + . . + o w u.u.u.u.=.X J 7 . p.",
"  . Z 3 j  .t u.u.r.#.# g [ | | | | I > | >.u.u.u.u.u.M 3 /     ",
"  $ L . X.r.u.u.u.r.h s u.u.u.u.i.i.E 4 u.u.u.u.u.u.u.;.. _ $   ",
"X q b , <.r.u.u.u.u.: ~ u.u.u.u.i.i.E 4 u.u.u.u.u.u.u.u.> B a . ",
"O v 0 n ' } u.u.u.u.> R u.u.u.u.i.i.E 4 u.u.u.u.u.u.} { N 0 V X ",
". Z , C ! ] u.u.u.u.U = 5.u.u.u.u.u.E 4 u.u.u.u.u.u.[ ` R , / . ",
"  L & W 9.u.u.u.u.u.u.d @ s h h h h w # h Y u.u.u.u.u.u.` = )   ",
". H & ` q.u.u.u.u.u.u.u.w + y h h k w # k Y t.t.t.u.u.u.~ = ) . ",
". Z , C ! [ u.u.u.u.u.E # =.u.u.u.u.R w u.u.t.t.u.u.{ ~ Q > ^ . ",
"O v 0 n ' } u.u.u.u.u.w I u.u.u.i.i.E 4 u.u.u.u.u.u.} { N e V X ",
"o q c 2 <.u.u.u.u.u.u.4 R u.u.u.i.i.E 4 u.u.u.u.u.u.t.u.4 B a . ",
"  $ L . ..r.u.u.u.u.u.k r u.u.u.i.i.E 4 t.t.u.u.u.u.u.>.. _ $   ",
"  . S 3 n 3.u.u.u.u.u.>.% s ] | | | I : | ;.u.u.u.y +.M < /     ",
"a.O 8 Z X ..u.u.u.u.u.u.#.d #   + . . + @ w t.u.u.5.>.o J 0 . p.",
"a.  . Z 0 e 4.u.u.u.u.u.u.u.>.  t.U r t.t.t.t.t.u.r.r 7 J     p.",
"a.a.. ; P & j 3.u.u.u.u.u.u.8.+ u.R s u.u.u.[ g u.M & _ ; . p.p.",
"a.a.  o 9 K O n q.r.u.u.u.u.u.r.u.u.e.u.u.u.u.8.M o / u .   p.p.",
"a.a.a.  . z K & e O.u.u.u.u.u.#.+.u.u.g ] u.>.r & / x .   p.p.p.",
"a.a.a.a.  o 9 ( 7 o m *.u.u.u.Q Q u.u.u.>.M X 7 _ u .   p.p.p.p.",
"a.a.a.a.a.  o * G J 3 . 2 M T ] ] T N 2 . , F ^ ; .   p.p.p.p.p.",
"a.a.a.a.a.a.  o   5 K _ B 0 , & & 3 7 B _ / 7   .   p.p.p.p.p.p.",
"a.a.a.a.a.a.a.a.  o . $ i V ^ _ _ ^ V a $   .   p.p.p.p.p.p.p.p.",
"a.a.a.a.a.a.a.a.p.p.    o O .     . o .     p.p.p.p.p.p.p.p.p.p."
};
