/* XPM */
static char *cGl4aWwtZnJhbWUtMCslMjg0JTI5[] = {
/* columns rows colors chars-per-pixel */
"32 32 131 2 ",
"   c #020100",
".  c #0A0600",
"X  c #0E0900",
"o  c #120C00",
"O  c #1A0F00",
"+  c #151000",
"@  c #181500",
"#  c #1E1A00",
"$  c #241400",
"%  c #211C00",
"&  c #2C1E00",
"*  c #391E00",
"=  c #2D2200",
"-  c #302000",
";  c #3C2200",
":  c #352E00",
">  c #3D3201",
",  c #472E00",
"<  c #492F00",
"1  c #5B2F00",
"2  c #423501",
"3  c #4B3101",
"4  c #443B00",
"5  c #5E3100",
"6  c #513E02",
"7  c #5E3900",
"8  c #663400",
"9  c #6A3600",
"0  c #623C00",
"q  c #743B00",
"w  c #4E4300",
"e  c #544401",
"r  c #564900",
"t  c #5C4F00",
"y  c #5F5200",
"u  c #6D4100",
"i  c #764100",
"p  c #784700",
"a  c #794800",
"s  c #635600",
"d  c #675900",
"f  c #6D5E00",
"g  c #6F6000",
"h  c #766600",
"j  c #7E6103",
"k  c #7C6B00",
"l  c #874500",
"z  c #8C4800",
"x  c #935701",
"c  c #9F5C01",
"v  c #AC5700",
"b  c #A05C01",
"n  c #826504",
"m  c #836D01",
"M  c #847100",
"N  c #897501",
"B  c #A26101",
"V  c #B56B01",
"C  c #A37D05",
"Z  c #CA6600",
"A  c #CC6A00",
"S  c #D06A00",
"D  c #CD7000",
"F  c #CE7B01",
"G  c #D17300",
"H  c #DE7000",
"J  c #D27C01",
"K  c #DB7B01",
"L  c #E67700",
"P  c #E67A00",
"I  c #948000",
"U  c #9A8500",
"Y  c #9E8800",
"T  c #A58E00",
"R  c #A79000",
"E  c #AA9300",
"W  c #BE9106",
"Q  c #B29A00",
"!  c #BE9B03",
"~  c #BAA000",
"^  c #D68001",
"/  c #DA8201",
"(  c #EA8501",
")  c #E78A01",
"_  c #EC8C01",
"`  c #C1A700",
"'  c #CDA604",
"]  c #C5AA00",
"[  c #C9AD00",
"{  c #CFB300",
"}  c #D6B900",
"|  c #DDBF00",
" . c #E0B504",
".. c #E8B107",
"X. c #EAB307",
"o. c #ECB307",
"O. c #E7BB04",
"+. c #EBBF04",
"@. c #E2C300",
"#. c #E4C500",
"$. c #E5C600",
"%. c #E6C600",
"&. c #E7C700",
"*. c #ECC702",
"=. c #E8C800",
"-. c #EACA00",
";. c #EBCB00",
":. c #EEC902",
">. c #ECCC00",
",. c #EDCC00",
"<. c #EECD00",
"1. c #FEC507",
"2. c #F6CA03",
"3. c #FDC805",
"4. c #FDC905",
"5. c #FECD04",
"6. c #F3D200",
"7. c #F4D001",
"8. c #F5D300",
"9. c #F6D400",
"0. c #FFD003",
"q. c #FED103",
"w. c #FFD004",
"e. c #FFD303",
"r. c #FCD900",
"t. c #FFD901",
"y. c #FEDB00",
"u. c #FFDB00",
"i. c #FFDC00",
"p. c None",
"a. c black",
/* pixels */
"p.p.p.p.p.p.p.p.p.p.    . X .     . X X     p.p.p.p.p.p.p.p.p.p.",
"p.p.p.p.p.p.p.p.  .   $ a V ^ _ ) ^ V a $ . .   p.p.p.p.p.p.p.p.",
"p.p.p.p.p.p.      7 ^ _ B 0 3 = & , 0 B _ ^ 7   .   p.p.p.p.p.p.",
"p.p.p.p.p.  . ; ^ J 3 . 2 N R ~ ` E N 2 . 3 J ^ ; .   p.p.p.p.p.",
"p.p.p.p.  . u _ e X N >.i.{ ~ i.i.` { i.<.M o 7 _ u .   p.p.p.p.",
"p.p.p.  . x / & r -.i.i.i.} [ i.i.[ } i.i.@.>.r & ^ x .   p.p.p.",
"p.p.  . u / + m i.i.i.i.i.i.i.i.i.i.i.i.i.y 6.y.M + ^ u .   p.p.",
"p.p.  ; _ & M i.i.i.i.i.i.i.i.i.i.i.i.i.i.i.i.i.y.M & _ ; . p.p.",
"p.  . J 7 r i.i.i.i.i.i.i.i.i.i.i.i.i.i.i.i.i.i.f 9.r 7 ^     p.",
"p.. 7 F X -.i.i.i.i.i.i.i.i.i.i.i.i.i.i.i.i.i.i.[ i.<.o F 7 . p.",
"    ^ 3 M i.i.i.i.w <.i.i.i.i.Y Y i.i.i.i.>.w i.i.i.i.M 3 ^     ",
"  $ _ . >.i.i.i.i.+ | i.i.i.i.h h i.i.i.i.| + i.i.i.` <.. _ $   ",
". p B 2 i.i.i.i.i.X > w > 4 w # % w > w 4 > o i.y.y.g i.2 B a . ",
"X V 0 N i.i.r.s r . I E E E E w w E E R E I   r s y.i.i.N 0 V o ",
". ^ 3 T i.i.i.R U . | i.i.i.i.h h i.i.i.i.| . U T i.i.i.T < ^ . ",
"  ) & ` Q $.i.i.y.o | i.i.i.i.h h i.i.i.i.| + i.i.i.$.Q ` = )   ",
"  ) = ~ Q #.y.+     | i.i.i.i.h h i.i.i.i.|     @ y.$.Q ~ = _   ",
"X ^ 3 T i.i.i.8.>.+ | i.i.i.i.h y i.i.i.i.[ % >.6.i.i.i.R 2 ^ . ",
"+ V u m i.i.i.i.i.% ] i.i.i.i.s + $.i.i.i.y d i.i.i.i.i.N 0 V @ ",
"o q B > i.g i.i.i.s g i.i.i.<.@ w # I E r % $.i.i.i.i.i.3 b i o ",
"  $ _ . :.] i.i.i.$.# s ~ R = d y.E w 4 k >.i.i.i.i.i.:.. _ $   ",
"    J 3 j i.i.i.i.i.&.g : 4 Y y.i.i.i.i.i.i.i.i.i.i.i.n 3 K .   ",
"a.X 1 J X O.i.[ i.i.i.i.i.i.i.i.i.i.i.i.i.i.i.i.i.i.+.o F 5 X p.",
"a.    D 0 6 2.g i.i.i.i.i.i.i.i.i.i.i.i.i.i.i.i.i.q.e 7 G .   p.",
"a.a.X * ( & n 4.i.i.i.i.i.i.i.i.i.i.i.i.i.i.i.i.q.n & ( , . p.p.",
"a.a.  o 8 K + n 1.2.t i.i.i.i.i.i.i.i.i.i.y.y.1.n + K 9 X   p.p.",
"a.a.a.  X l K & 6 ..} t.i.} ] i.i.[ } y.y.5.X.e & K z X   p.p.p.",
"a.a.a.a.  . 8 L 0 X n X.1.' ! e.q.! ' 1.o.n o 0 L 8 X   p.p.p.p.",
"a.a.a.a.a.  o * Z A 3 . > n U ^ W C n 2 . < A Z * o   p.p.p.p.p.",
"a.a.a.a.a.a.  .   1 S L b 7 , & = < 8 b L S 5 . o   p.p.p.p.p.p.",
"a.a.a.a.a.a.a.a.  X . $ q v S H H S v q $ . o   p.p.p.p.p.p.p.p.",
"a.a.a.a.a.a.a.a.a.a.    X O . .   X @ o     p.p.p.p.p.p.p.p.p.p."
};
