/* XPM */
static char *cGl4aWwtZnJhbWUtMCslMjg2JTI5[] = {
/* columns rows colors chars-per-pixel */
"32 32 128 2 ",
"   c #020100",
".  c #0A0600",
"X  c #0E0900",
"o  c #120C00",
"O  c #1A0F00",
"+  c #151000",
"@  c #181500",
"#  c #1E1A00",
"$  c #241400",
"%  c #211C00",
"&  c #2C1E00",
"*  c #391E00",
"=  c #2D2200",
"-  c #302000",
";  c #3C2200",
":  c #352E00",
">  c #3D3201",
",  c #472E00",
"<  c #492F00",
"1  c #5B2F00",
"2  c #423501",
"3  c #4B3101",
"4  c #443B00",
"5  c #5E3100",
"6  c #513E02",
"7  c #5E3900",
"8  c #663400",
"9  c #6A3600",
"0  c #623C00",
"q  c #743B00",
"w  c #4E4300",
"e  c #544401",
"r  c #564900",
"t  c #5C4F00",
"y  c #5F5200",
"u  c #6D4100",
"i  c #764100",
"p  c #784700",
"a  c #794800",
"s  c #635600",
"d  c #675900",
"f  c #6D5E00",
"g  c #6F6000",
"h  c #766600",
"j  c #7E6103",
"k  c #7C6B00",
"l  c #874500",
"z  c #8C4800",
"x  c #935701",
"c  c #9F5C01",
"v  c #AC5700",
"b  c #A05C01",
"n  c #826504",
"m  c #836D01",
"M  c #847100",
"N  c #897501",
"B  c #A26101",
"V  c #B56B01",
"C  c #A37D05",
"Z  c #CA6600",
"A  c #CC6A00",
"S  c #D06A00",
"D  c #CD7000",
"F  c #CE7B01",
"G  c #D17300",
"H  c #DE7000",
"J  c #D27C01",
"K  c #DB7B01",
"L  c #E67700",
"P  c #E67A00",
"I  c #948000",
"U  c #9A8500",
"Y  c #9E8800",
"T  c #A58E00",
"R  c #A79000",
"E  c #AA9300",
"W  c #BE9106",
"Q  c #B29A00",
"!  c #BE9B03",
"~  c #BAA000",
"^  c #D68001",
"/  c #DA8201",
"(  c #EA8501",
")  c #E78A01",
"_  c #EC8C01",
"`  c #C1A700",
"'  c #CDA604",
"]  c #C5AA00",
"[  c #C9AD00",
"{  c #CFB300",
"}  c #D6B900",
"|  c #DDBF00",
" . c #E0B504",
".. c #EAB207",
"X. c #ECB307",
"o. c #E7BB04",
"O. c #EBBF04",
"+. c #E4C500",
"@. c #E5C600",
"#. c #E6C600",
"$. c #E7C700",
"%. c #E2C300",
"&. c #ECC702",
"*. c #EEC902",
"=. c #EDCC00",
"-. c #EECD00",
";. c #EBCB00",
":. c #FEC507",
">. c #F6CA03",
",. c #FDC805",
"<. c #FDC905",
"1. c #FECD04",
"2. c #F4D001",
"3. c #F5D300",
"4. c #F4D300",
"5. c #FFD003",
"6. c #FED103",
"7. c #FFD203",
"8. c #FFD303",
"9. c #FFD004",
"0. c #FCD900",
"q. c #FFD901",
"w. c #FEDB00",
"e. c #FFDB00",
"r. c #FFDC00",
"t. c #FFDC00",
"y. c None",
"u. c black",
/* pixels */
"y.y.y.y.y.y.y.y.y.y.    o O X     X O X     u.u.u.u.u.u.u.u.u.u.",
"y.y.y.y.y.y.y.y.  o . $ q v S H L Z v q $ . o   u.u.u.u.u.u.u.u.",
"y.y.y.y.y.y.  . . 8 A L c 0 , - & , 8 b L A 1   X   u.u.u.u.u.u.",
"y.y.y.y.y.  o ; Z A 3 . , n C W ` C n > . 3 A Z * o   u.u.u.u.u.",
"y.y.y.y.  X 9 L 0 o n X.:.' ! 8.:.` ' :.X.j X 0 L 8 X   u.u.u.u.",
"y.y.y.  X z K & e ..1.q.r.} [ r.8.' } r.8.| X.6 & K l o   u.u.u.",
"y.y.  O 9 K O n <.q.r.r.r.r.r.r.0.r.r.r.q.t 2.<.j o K 8 o   u.u.",
"y.y.. * ( & n 1.r.r.r.r.r.r.r.r.0.r.r.r.t.t.t.t.1.j & ( * X u.u.",
"y.    G 0 e 9.r.r.r.r.r.r.r.r.r.t.t.t.t.t.t.t.t.f >.6 0 D .   y.",
"y.o 5 J X &.0.r.r.r.r.r.r.r.r.r.t.t.t.t.t.t.t.t.[ r.o.X F 5 o y.",
"  . K 3 n r.r.r.r.r.r.r.r.r.r.r.0.Y 4 : h +.t.t.r.r.r.n < J     ",
"  $ _ . *.r.r.r.r.r.=.k 4 w E r.d = T ~ s # @.t.r.r.] &.. _ $   ",
"o i b 2 r.r.r.r.r.@.% r R I # w @ -.t.t.t.d s t.t.t.g t., B i o ",
"O V 0 N r.r.r.r.r.d s r.r.r.$.+ s t.t.t.w.{ % t.t.t.t.t.m 0 V O ",
". / < T r.r.r.4.=.# [ r.r.r.r.y h t.t.t.t.| X -.4.t.t.t.T 3 J . ",
"  ) & ` Q @.0.+     | r.r.r.r.h h t.t.t.t.|     + 0.&.Q ~ = )   ",
"  ) = ~ Q @.r.r.w.+ | r.r.r.r.h h r.r.r.r.| + w.w.w.@.Q ~ = )   ",
". / 3 R r.r.r.E U X | r.r.r.r.h h r.r.r.r.| X U R w.r.r.E 4 ^ . ",
"X V 7 N r.r.0.y r   I E E E E w w E E E E I . r y w.r.r.M u V X ",
"X a B 4 r.g r.r.r.+ : w > w > = = 4 4 4 4 : + w.r.r.r.r.> B a . ",
"  $ _ . -.] r.r.r.+ | w.r.r.r.h h w.r.r.r.| + w.r.r.r.=.. _ $   ",
"    ^ 3 M r.r.r.r.w ;.w.r.r.r.Y Y w.r.r.r.-.w r.r.r.r.M 2 /     ",
"y.. 7 F X -.r.[ r.r.r.r.r.r.r.r.w.w.w.r.r.r.r.r.r.r.;.X F 7 . y.",
"y.    ^ e r 4.g r.r.r.r.r.r.r.r.w.w.r.r.r.r.r.r.r.0.r 7 J .   y.",
"y.y.  ; _ & M r.r.r.r.r.r.r.r.r.r.r.r.r.r.r.r.r.r.M & _ ;   y.y.",
"y.y.  . u / + M r.4.y 0.r.r.r.r.r.r.r.r.r.r.r.0.m + / u X   y.y.",
"y.y.y.    x / & r =.%.r.r.} [ r.r.[ } r.r.r.;.r & / x .   y.y.y.",
"y.y.y.y.  . i _ 7 o M =.r.{ ~ r.r.~ { r.=.M X 7 _ u .   y.y.y.y.",
"y.y.y.y.y.  . ; ^ J < . 4 N R ` ` R N 2 . < J ^ ; .   y.y.y.y.y.",
"y.y.y.y.y.y.  .   7 / _ c 0 3 & = 3 0 B _ / 7   .   y.y.y.y.y.y.",
"y.y.y.y.y.y.y.y.  . . $ a V / ) ) ^ V a $   .   y.y.y.y.y.y.y.y.",
"y.y.y.y.y.y.y.y.y.y.    . X .     . X .     y.y.y.y.y.y.y.y.y.y."
};
