/* XPM */
static char *cGl4aWwtZnJhbWUtMCslMjgzJTI5[] = {
/* columns rows colors chars-per-pixel */
"32 32 57 1 ",
"  c black",
". c #050101",
"X c #060101",
"o c #070201",
"O c #070202",
"+ c #070700",
"@ c #090202",
"# c #0B0202",
"$ c #0A0302",
"% c #0C0202",
"& c #0D0302",
"* c #0F0303",
"= c #0B0402",
"- c #0D0402",
"; c #0C0403",
": c #0F0403",
"> c #0B0404",
", c #0A0900",
"< c #0C0A00",
"1 c #110303",
"2 c #110403",
"3 c #180504",
"4 c #1A0706",
"5 c #1B0706",
"6 c #1A1D18",
"7 c #1E2629",
"8 c #29353B",
"9 c #2B373E",
"0 c #35454D",
"q c #36464E",
"w c #384851",
"e c #3B4D56",
"r c #3C4E57",
"t c #3D5059",
"y c #3E515B",
"u c #42565F",
"i c #495F69",
"p c #495F6A",
"a c #4A606C",
"s c #4B626D",
"d c #4F6773",
"f c #506874",
"g c #516975",
"h c #526A76",
"j c #556E7B",
"k c #556F7B",
"l c #556F7C",
"z c #FFEB3B",
"x c #597581",
"c c #5D7987",
"v c #5D7A87",
"b c #5E7B89",
"n c #5F7C8A",
"m c #607D8A",
"M c #607D8B",
"N c #9C27B0",
"B c None",
/* pixels */
"BB BBBBBBBBBBBBBBBBBBBBBBBBBB BB",
"BB BBBBBBBBB        BBBBBBBBB BB",
"B   BBBBBB   tpgfpw   BBBBBB< BB",
"BB z +BB   bMMMMMMMMx   BB+,z BB",
"BB zz    dMMMMM  MMMMMr    zz BB",
"BB zzzzz  MMMM    MMMu  zzzzz BB",
"BBB zzzzz MMMn NN nMMt zzzzz BBB",
"BBBB zzz  MMM  NN  MMg  zzz BBBB",
"BBBB    7nMM  NNNN  MMs6    BBBB",
"BBBB  qrnMM  NNNNNN  Mnne8  BBBB",
"BBBB sMMMk  NNNNNNNN  lMMk9 BBBB",
"BBOO vMg  NNNNNNNNNNNN  gbq %OBB",
"B NN    NNNNNNNNNNNNNNNN    NN B",
"B NN;NNNNNNNNN NN NNNNNNNNN>NN B",
"B  NNN NNNNNNN NN NNNNNNN NNN  B",
"BB NNN      NN NN NN      NNN BB",
"BB NNNN zzz    NN    zzz NNNN BB",
"BB NNNN zzzzzz NN zzzzzz NNNN BB",
"BB NNNN        NN        NNNN BB",
"BB NNNNNNNNNNNNNNNNNNNNNNNNNN BB",
"BB NNNNNNNNN NNNNNN NNNNNNNNN BB",
"BB   NNNNNNN N NN N NNNNNNN   BB",
"BBBB NNO  NN   NN   NN   NN BBBB",
"BBBB  N2N  NNNN55NNNN  N N  BBBB",
"BBBBB$NN5NN    NN    NN NN BBBBB",
"BBBBBB%NN NN        NN NN1BBBBBB",
"BBBBBBB=NN   zzzzzz   NN%BBBBBBB",
"BBBBBBBB$NN  z    z  NN%BBBBBBBB",
"BBBBBBBBB$NN   NN   NN$BBBBBBBBB",
"BBBBBBBBBBONNNNNNNNNN%BBBBBBBBBB",
"BBBBBBBBBBB  NN  NN  BBBBBBBBBBB",
"BBBBBBBBBBBB   ;;%  BBBBBBBBBBBB"
};
