/* XPM */
static char *cGl4aWwtZnJhbWUtMCslMjgxJTI5[] = {
/* columns rows colors chars-per-pixel */
"32 32 101 2 ",
"   c black",
".  c #010101",
"X  c #050101",
"o  c #070201",
"O  c #070202",
"+  c #070600",
"@  c gray2",
"#  c #060404",
"$  c #070404",
"%  c #050606",
"&  c #060607",
"*  c #060707",
"=  c #080202",
"-  c #090202",
";  c #0B0202",
":  c #0A0302",
">  c #0B0302",
",  c #0C0202",
"<  c #0D0302",
"1  c #0F0303",
"2  c #080700",
"3  c #0B0402",
"4  c #0C0402",
"5  c #0D0402",
"6  c #0C0403",
"7  c #0F0403",
"8  c #0B0404",
"9  c #0E0C00",
"0  c #050808",
"q  c #060808",
"w  c #06090A",
"e  c #07090A",
"r  c #090A0B",
"t  c #100303",
"y  c #110303",
"u  c #130403",
"i  c #100404",
"p  c #170404",
"a  c #1A0706",
"s  c #1B0706",
"d  c #1E0605",
"f  c #100D00",
"g  c #170A09",
"h  c #170A0A",
"j  c #170C0C",
"k  c #180A0A",
"l  c #180D0C",
"z  c #181301",
"x  c #121517",
"c  c #290707",
"v  c #210907",
"b  c #2C0C09",
"n  c #2D0C09",
"m  c #320908",
"M  c #37100B",
"N  c #1C2428",
"B  c #253034",
"V  c #2B373E",
"C  c #600F0F",
"Z  c #641E18",
"A  c #63201A",
"S  c #732019",
"D  c #7A221B",
"F  c #2E3C44",
"G  c #35454D",
"H  c #3E515B",
"J  c #42565F",
"K  c #425660",
"L  c #495F69",
"P  c #495F6A",
"I  c #4A606C",
"U  c #4B626D",
"Y  c #506874",
"T  c #516975",
"R  c #526A76",
"E  c #556E7B",
"W  c #556F7B",
"Q  c #556F7C",
"!  c #6B6968",
"~  c #6C6A69",
"^  c #706F6F",
"/  c gray50",
"(  c #841414",
")  c #B71C1C",
"_  c #AC251F",
"`  c #A12C23",
"'  c #BE3429",
"]  c #C3352A",
"[  c #C5362B",
"{  c #673AB7",
"}  c #597581",
"|  c #5D7987",
" . c #5D7A87",
".. c #5E7B89",
"X. c #5F7C8A",
"o. c #607D8A",
"O. c #607D8B",
"+. c #8D8D8D",
"@. c gray56",
"#. c gray67",
"$. c None",
/* pixels */
"$.$.+ $.$.$.$.$.$.$.$.$.$.$.$.$.$.$.$.$.$.$.$.$.$.$.$.$.$.9 $.$.",
"$.    $.$.$.$.$.$.$.$.$.$.            $.$.$.$.$.$.$.$.$.$.    $.",
"$.  { 2 $.$.$.$.$.$.        P Y Y P         $.$.$.$.$.$.  {   $.",
"$.  { {       $.q     ..o.O.O.O.o.O.O.O.}   r r $.      { {   $.",
"$.$.  { { {         O.O.O.O.o.B B o.O.O.O.o.        { { {     $.",
"$.$.  { { { { { {   O.O.O.O.K k g K O.O.o.K   { { { { { {   $.$.",
"$.$.$.  { { { { {   O.O.O.X.x ) )   X.O.o.H   { { { { { f $.$.$.",
"$.$.$.$.  { { {     O.O.O.    ) )     o.O.Y     { { { z $.$.$.$.",
"$.$.$.$.    {     ..O.O.    ) ) ) )     O.O.I     {     $.$.$.$.",
"$.$.$.$.&       o.o.O.    ) ) ) ) ) )     O.O.X.      e $.$.$.$.",
"$.$.$.$.q U o.o.O.Q   k ) ) ) ) ) ) ) )     Q o.O.Q V e $.$.$.$.",
"$.  O O   ..o.Y     ) ) ) ) ) ) ) ) ) ) ) )     Y ..G   ,     $.",
"$.  ) ) & F   & ) ) ) ) ) ) ) ) ) ) ) ) ) ) ) ) &   N & ) )   $.",
"$.  ) ) 6   ) ) ) ) ) ) ) )   ) )   ) ) ) ) ) ) ) )   8 ) )   $.",
"$.  ) )   ) i ) ) ) ) ) ) )   ) )   ) ) ) ) ) ) ) t )   ) )   $.",
"$.    ) ) )         l   D A v ) ) v Z D   j         ) ) )     $.",
"$.$.  ) ) )   { { { )         ) )         ) { { {   ) ) )   $.$.",
"$.$.  ) ) )   ) { { { { { {   ) )   { { { { { { )   ) ) )   $.$.",
"$.$.  ) ) ) )         { { )   ) )   ) { {         ) ) ) )   $.$.",
"$.$.  ) ) ) ) ) ) )         ) ) ) )         ) ) ) ) ) ) )   $.$.",
"$.$.  ) ) ) ) ) ) ) ) )   ) ) ) ) ) )   ) ) ) ) ) ) ) ) )   $.$.",
"$.$.      ) ) ) ) ) ) )   )   ) )   )   ) ) ) ) ) ) )       $.$.",
"$.$.$.$.  ` )       ) )       ) )       ) )       ) (   $.$.$.$.",
"$.$.$.$.  S )   )     ) ) ) ) p s ) ) ) )     )   ) C   $.$.$.$.",
"$.$.$.$.$.; )     ) )         ) )         ) ) p   ) ; $.$.$.$.$.",
"$.$.$.$.$.$.6 ) )   ) )   #.+.~ ~ / #.  ) ) d ) ) y $.$.$.$.$.$.",
"$.$.$.$.$.$.$.; ) )     +.{ { { { { { +.c i ) ) 1 $.$.$.$.$.$.$.",
"$.$.$.$.$.$.$.$.; ) )   ^ { {     { { ^   ) ) , $.$.$.$.$.$.$.$.",
"$.$.$.$.$.$.$.$.$.O )         ) )         ) ; $.$.$.$.$.$.$.$.$.",
"$.$.$.$.$.$.$.$.$.$.O ) ) ) ) ) ) ) ) ) ) ; $.$.$.$.$.$.$.$.$.$.",
"$.$.$.$.$.$.$.$.$.$.$.; M ' [ n n [ _ m y $.$.$.$.$.$.$.$.$.$.$.",
"$.$.$.$.$.$.$.$.$.$.$.$.; 2 ; 6 6 , t 6 $.$.$.$.$.$.$.$.$.$.$.$."
};
