/* XPM */
static char *c3VwZXJoZXJv[] = {
/* columns rows colors chars-per-pixel */
"32 32 209 2 ",
"   c black",
".  c #010000",
"X  c #020000",
"o  c #020101",
"O  c #030101",
"+  c #040101",
"@  c #050101",
"#  c #060101",
"$  c #070101",
"%  c #040404",
"&  c #080202",
"*  c #090202",
"=  c #0A0202",
"-  c #0A0203",
";  c #0B0303",
":  c #0E0404",
">  c #0E0E0E",
",  c #110404",
"<  c #130504",
"1  c #140404",
"2  c #140507",
"3  c #190606",
"4  c #1E0707",
"5  c #1B0709",
"6  c #1A0B0A",
"7  c gray7",
"8  c gray8",
"9  c #220807",
"0  c #270909",
"q  c #250A0D",
"w  c #280A09",
"e  c #2A0A09",
"r  c #2C0B0A",
"t  c #310C0B",
"y  c #330C0B",
"u  c #350D0C",
"i  c #370D0C",
"p  c #3C0F0D",
"a  c #3F0F0E",
"s  c #2B0B10",
"d  c #350E13",
"f  c #350E14",
"g  c #202020",
"h  c gray16",
"j  c gray19",
"k  c #323232",
"l  c #3C3C3C",
"z  c #44110F",
"x  c #4E1311",
"c  c #431219",
"v  c #47121A",
"b  c #521412",
"n  c #551513",
"m  c #5A1614",
"M  c #611715",
"N  c #621816",
"B  c #641816",
"V  c #651816",
"C  c #651916",
"Z  c #6A1A17",
"A  c #6B1A17",
"S  c #6A1B1F",
"D  c #701B19",
"F  c #721B19",
"G  c #781D1A",
"H  c #7A1D1B",
"J  c #7B1E1B",
"K  c #551620",
"L  c #561720",
"P  c #571720",
"I  c #661B26",
"U  c #691C27",
"Y  c #751F2B",
"T  c #7C212E",
"R  c #7D212F",
"E  c #7E212F",
"W  c #555555",
"Q  c gray37",
"!  c #801F1C",
"~  c #801F1F",
"^  c #83201D",
"/  c #84201D",
"(  c #87211E",
")  c #8D2220",
"_  c #8F2220",
"`  c #89232D",
"'  c #922320",
"]  c #942421",
"[  c #952421",
"{  c #972421",
"}  c #972521",
"|  c #9A2522",
" . c #9B2522",
".. c #9B2622",
"X. c #9F2623",
"o. c #9F2723",
"O. c #9E282E",
"+. c #812230",
"@. c #872432",
"#. c #882433",
"$. c #8D2534",
"%. c #8E2535",
"&. c #942632",
"*. c #912636",
"=. c #922636",
"-. c #932737",
";. c #942737",
":. c #A02723",
">. c #A12723",
",. c #A12724",
"<. c #A22724",
"1. c #A32724",
"2. c #A42824",
"3. c #A72825",
"4. c #A72925",
"5. c #A62926",
"6. c #A82925",
"7. c #A92925",
"8. c #AA2925",
"9. c #AB2925",
"0. c #AA2926",
"q. c #AB2926",
"w. c #AC2A26",
"e. c #AD2A26",
"r. c #AE2A26",
"t. c #AF2A27",
"y. c #AB2A28",
"u. c #AA2A2B",
"i. c #B12B27",
"p. c #B22B27",
"a. c #B32B27",
"s. c #B32B28",
"d. c #B02B2A",
"f. c #B32C2A",
"g. c #B42C28",
"h. c #B52C28",
"j. c #B62C28",
"k. c #B72C28",
"l. c #B82C28",
"z. c #B92D29",
"x. c #BA2D29",
"c. c #BC2E29",
"v. c #BD2E2A",
"b. c #BE2E2A",
"n. c #A12A3C",
"m. c #A52B3D",
"M. c #AB2D3F",
"N. c #B22D36",
"B. c #B42D35",
"V. c #BD2F34",
"C. c #BA303D",
"Z. c #C02E2A",
"A. c #C02F2A",
"S. c #C12F2A",
"D. c #C12F2B",
"F. c #C22F2B",
"G. c #C32F2B",
"H. c #C4302B",
"J. c #C5302B",
"K. c #C3302E",
"L. c #C6302C",
"P. c #C7302C",
"I. c #C8302C",
"U. c #C8312C",
"Y. c #C9312C",
"T. c #CA312D",
"R. c #CB312D",
"E. c #CC312D",
"W. c #CD322D",
"Q. c #CF322E",
"!. c #D0322E",
"~. c #D1332E",
"^. c #D2332E",
"/. c #D3332F",
"(. c #D4332F",
"). c #D5332F",
"_. c #D5342F",
"`. c #D6342F",
"'. c #D7342F",
"]. c #CE3336",
"[. c #D63430",
"{. c #D93530",
"}. c #DA3530",
"|. c #DB3530",
" X c #DC3530",
".X c #DD3631",
"XX c #DE3631",
"oX c #DF3631",
"OX c #E03631",
"+X c #E13732",
"@X c #E23732",
"#X c #E33732",
"$X c #AE2E41",
"%X c #AF2E41",
"&X c #B12E41",
"*X c gray51",
"=X c gray56",
"-X c gray63",
";X c #A5A5A5",
":X c gray66",
">X c gray71",
",X c #BBBBBB",
"<X c #CACACA",
"1X c gray81",
"2X c gray83",
"3X c #E2E2E2",
"4X c gray95",
"5X c white",
"6X c None",
/* pixels */
"6X6X6X6X6X6X6X6X6X6X6X6X  + =   + + +   6X6X6X6X6X6X6X6X6X6X6X6X",
"6X6X6X6X6X6X6X6X6X    + i n A F F Z b p +     6X6X6X6X6X6X6X6X6X",
"6X6X6X6X6X6X6X    e / `.#X#X#XI.G.#X#X#X`./ e     6X6X6X6X6X6X6X",
"6X6X6X6X6X6X    C ).#X#X#X#X#XG.I.#X#X#X#X#X!.C +   6X6X6X6X6X6X",
"6X6X6X6X6X+ = 3.^.l.#X#X#X@X`.o.:.).#X#X#X#Xc.!.3.= + 6X6X6X6X6X",
"6X6X6X6X6X  [ #X!.[ j.H.H.j.3.K.F.7.j.F.H.p.[ !.@X[   6X6X6X6X6X",
"6X6X6X6X  b #X#X3.p.`.!.Y.|.#XI.G.#X.XI.!.).p.3.@X@Xb   6X6X6X6X",
"6X6X6X6X  Q..X7.Q.I.F.#X#X@X@XP.I.#X#X#X#XF.I.Q.7..X!.+ 6X6X6X6X",
"6X6X6X+ a 7.e.).#X#X7.#X@X#X#Xl.l.@X#X#X#Xe..X#X`.e.7.z   6X6X6X",
"6X6X6X  ' :.|.#X#X#Xe.[.|.I.s.2.3.p.I.|.[.e.@X#X#X|.:.'   6X6X6X",
"6X6X6X+ p.!.e..X#X#X2.1.l.F.|.I.P.`.F.l.:.3.#X#X#X7.Q.p.+ 6X6X6X",
"6X6X  u 3.#XJ J #Xj.I.7..X#X#XG.I.@X#X.X7.H.j.#XG J #X3.y   6X6X",
"6X6X+ m F.#Xe u 3.P.#X!.l.#X#XI.P.#X#Xl.!.#XI.7.u e #XF.m + 6X6X",
"6X6X+ M #XJ   = [.@X#X#X7..X#X3.3.@X.X7.#X#X#X[.=   J #XM + 6X6X",
"6X6X  ' #Xn     C #X#X#XF.| 7.j.j.7.| H.#X#X#XC     n #X'   6X6X",
"6X6X  ..#Xp     < [ #X@X7.e..XG.P..X7.3.#X#X[ <     a #X|   6X6X",
"6X6X  / j.e   W 7 , ) 7.I.[.j.I.P.s.[.Q.7.) 1 7 W   e j./   6X6X",
"6X6X  l.[.y   =X>X% < J #X#Xt.c.F.e.#X#XJ , % >X=X  t ).l.  6X6X",
"6X6X  I.#Xx   *X5X-X> = N #X`.7.7.|.#XM + > -X5X*X  x #XI.  6X6X",
"6X6X  Q.#XJ   g 4X5X<Xh   D #X1.1.#XA   h <X5X4Xg   ! #XI.  6X6X",
"6X6X  ) #X!.4   ,X5X5X2Xl 3 K.2.1.D.3 l 2X5X5X,X  4 ^.@X)   6X6X",
"6X6X  T c.#XA   j 3X5X5X1X8 i ..o.u 8 1X5X5X3Xk   A #Xc.J   6X6X",
"6X6X= S 7.|.7.z   k ;X:XQ 6 N | | N 6 Q :X;Xk   z 7.`.7.U ; 6X6X",
"6X6X: v 7.3..X.XZ 0 1 9 y ' [.s.j.[.' y 9 < 0 Z #X.X3.7.v < 6X6X",
"6X6X  s ` 3.H.#X+X+XI.7.P.c.2.y.e.2.c.D.7.P.#X#X@XH.3.` s   6X6X",
"6X6X6X  %.C.j.c.+X+XP.v.#X#Xy.|.|.e.#X#Xc.H.#X#Xl.j.C.%.  6X6X6X",
"6X6X6X= c %X&XO.P.|.7.@X#X#Xj.+X#Xj.#X#X#X7.|.K.O.%X%Xc ; 6X6X6X",
"6X6X6X6X  U %X%X+.&.N.B.V.].u.t.t.u.].V.B.N.&.+.%X%XU   6X6X6X6X",
"6X6X6X6X    L %X=.Y #.*.%.R R n.n.T Y %.;.#.Y =.$XL     6X6X6X6X",
"6X6X6X6X6X6X  6 P E &X%X%X*.m.%X$X$X*.$X%X&XE P 6 & 6X6X6X6X6X6X",
"6X6X6X6X6X6X6X+ +   2 q f f P I I P f f q 2   +   6X6X6X6X6X6X6X",
"6X6X6X6X6X6X6X6X6X6X6X    + - + + - +     6X6X6X6X6X6X6X6X6X6X6X"
};
