/* XPM */
static char *Yml0Y29pbg__[] = {
/* columns rows colors chars-per-pixel */
"32 32 131 2 ",
"   c #040300",
".  c #0A0600",
"X  c #0E0900",
"o  c #120C00",
"O  c #1A0F00",
"+  c #151000",
"@  c #181500",
"#  c #1E1A00",
"$  c #241400",
"%  c #211C00",
"&  c #2C1E00",
"*  c #391E00",
"=  c #2D2200",
"-  c #302000",
";  c #3C2200",
":  c #352E00",
">  c #3D3201",
",  c #472E00",
"<  c #492F00",
"1  c #5B2F00",
"2  c #423501",
"3  c #4B3101",
"4  c #443B00",
"5  c #5E3100",
"6  c #513E02",
"7  c #5E3900",
"8  c #663400",
"9  c #6A3600",
"0  c #623C00",
"q  c #743B00",
"w  c #4E4300",
"e  c #544401",
"r  c #564900",
"t  c #5C4F00",
"y  c #5F5200",
"u  c #6D4100",
"i  c #764100",
"p  c #784700",
"a  c #794800",
"s  c #635600",
"d  c #675900",
"f  c #6D5E00",
"g  c #6F6000",
"h  c #766600",
"j  c #7E6103",
"k  c #7C6B00",
"l  c #874500",
"z  c #8C4800",
"x  c #935701",
"c  c #9F5C01",
"v  c #AC5700",
"b  c #A05C01",
"n  c #826504",
"m  c #836D01",
"M  c #847100",
"N  c #897501",
"B  c #A26101",
"V  c #B56B01",
"C  c #A37D05",
"Z  c #CA6600",
"A  c #CC6A00",
"S  c #D06A00",
"D  c #CD7000",
"F  c #CE7B01",
"G  c #D17300",
"H  c #DE7000",
"J  c #D27C01",
"K  c #DB7B01",
"L  c #E67700",
"P  c #E67A00",
"I  c #948000",
"U  c #9A8500",
"Y  c #9E8800",
"T  c #A58E00",
"R  c #A79000",
"E  c #AA9300",
"W  c #BE9106",
"Q  c #B29A00",
"!  c #BE9B03",
"~  c #BAA000",
"^  c #D68001",
"/  c #DA8201",
"(  c #EA8501",
")  c #E78A01",
"_  c #EC8C01",
"`  c #C1A700",
"'  c #CDA604",
"]  c #C5AA00",
"[  c #C9AD00",
"{  c #CFB300",
"}  c #D6B900",
"|  c #DDBF00",
" . c #E0B504",
".. c #EAB307",
"X. c #E7BB04",
"o. c #EBBF04",
"O. c #E2C300",
"+. c #E4C500",
"@. c #E5C600",
"#. c #E6C600",
"$. c #E7C700",
"%. c #E5C600",
"&. c #ECC702",
"*. c #E8C800",
"=. c #EBCB00",
"-. c #EEC902",
";. c #ECCC00",
":. c #EDCC00",
">. c #EECD00",
",. c #ECCB00",
"<. c #FEC507",
"1. c #F6CA03",
"2. c #FDC805",
"3. c #FDC905",
"4. c #FECD04",
"5. c #F3D200",
"6. c #F4D001",
"7. c #F5D300",
"8. c #F6D400",
"9. c #FFD003",
"0. c #FED103",
"q. c #FFD203",
"w. c #FFD303",
"e. c #FFD004",
"r. c #FCD900",
"t. c #FFD901",
"y. c #FEDB00",
"u. c #FFDC00",
"i. c #FFDC00",
"p. c None",
"a. c black",
/* pixels */
"p.p.p.p.p.p.p.p.p.p.p.p.. o       . O o p.p.p.p.p.p.p.p.p.p.p.p.",
"p.p.p.p.p.p.p.p.p..   $ a V ^ _ ) / V i &   o p.p.p.p.p.p.p.p.p.",
"p.p.p.p.p.p.p.    7 / _ b 0 3 & & < 0 B _ K 8   X p.p.p.p.p.p.p.",
"p.p.p.p.p.p.. ; ^ F 3   4 N T ` ` T N 2   3 F G * O p.p.p.p.p.p.",
"p.p.p.p.p.  u _ 6 + M >.u.u.y.Q Q y.u.u.-.n o 7 ( 9 X p.p.p.p.p.",
"p.p.p.p.  x / = r ;.u.] g u.y.%.@.u.u.u.u.u.o.e & K z X p.p.p.p.",
"p.p.p.. u / + M 5.y.u.u.u.y.y.y.y.u.u.u.u.u.u.w.n O K 9 o p.p.p.",
"p.p.  , _ & M u.g { u.u.u.y R y.o 8.u.u.u.u.u.u.4.n & P ; X p.p.",
"p.p.  ^ 7 r y.u.u.u.u.u.u.r U y.  >.u.u.u.u.u.u.u.3.e 0 Z X p.p.",
"p.. 0 F o >.5.u.u.u.w o +   . +   % s @.u.u.u.u.y.y...o A 1 o p.",
"p.  / < M O.t u.u.u.>.| > I | | | ] s % ;.u.u.u.y.u.4.n 3 S . p.",
"p.$ _ . >.u.u.u.u.u.u.u.4 E u.u.u.u.u.r k u.u.u.u.u.y...X L $ p.",
". a B 4 y.u.u.u.u.u.u.u.4 E u.u.u.u.u.R 4 u.u.u.u.u.t.<.2 c q o ",
"o V 0 N { } u.u.u.u.u.u.4 E u.u.u.u.u.I e u.u.u.u.t.} ' n 9 v O ",
". / , E ` [ u.u.u.u.u.u.4 E u.u.u.y.$.# E u.u.u.u.u.[ ! C < S . ",
"  ) & ~ y.u.u.u.u.u.Y h # w h k h y + w u.u.u.u.u.u.t.<.` & H   ",
"  ) = ~ u.r.u.u.u.u.Y h % w h h h h s @ d y.y.y.u.u.u.w.W = H   ",
"  / 3 R ~ { u.u.u.u.u.u.4 E u.u.u.u.u.>.= Y y.y.u.u.] ! C < S . ",
"X V 0 N { } u.u.u.u.u.u.4 E u.u.u.u.u.u.R 4 u.u.u.u.} [ n 8 v O ",
"X a B 4 u.u.u.u.u.u.u.u.4 E u.u.u.u.u.u.~ : u.u.u.u.u.3.> b q o ",
"a.$ _ . =.u.u.u.u.u.u.u.w R y.u.u.u.u.u.s g u.u.u.u.t.... L $ a.",
"a.  / 3 M u.u.u.u.u.>.| > I | | | | [ d # $.u.u.u.y  .j < A . a.",
"a.. 7 J X *.u.u.u.u.w + o   . o   X = y %.u.u.u.u.6...X A 1 X a.",
"a.a.  ^ e r y.u.u.u.u.u.u.r U u.  ;.y.y.u.u.u.u.u.3.6 0 Z   a.a.",
"a.a.  ; _ = M t.u.u.u.u.u.s R u.+ 7.u.u.u.u.[ f e.j & L * . a.a.",
"a.a.a.. u / + M u.u.u.u.u.r.u.u.r.u.u.u.u.u.u.1.j + K 8 o a.a.a.",
"a.a.a.a.. x / & r =.u.u.u.u.u.+.%.u.u.g ] t.X.e & K l . a.a.a.a.",
"a.a.a.a.a.. u _ 7 o M -.u.u.u.Q Q u.u.u.&.j X 0 ( 8 o a.a.a.a.a.",
"a.a.a.a.a.a.. ; ^ F 3 . 2 N T ` ~ R M > . 3 J D * O a.a.a.a.a.a.",
"a.a.a.a.a.a.a.    7 ^ _ B 0 3 - - 3 u B _ G 5   . a.a.a.a.a.a.a.",
"a.a.a.a.a.a.a.a.a..   $ p V ^ ) ) ^ V q $ . o a.a.a.a.a.a.a.a.a.",
"a.a.a.a.a.a.a.a.a.a.a.a.. X       . + X a.a.a.a.a.a.a.a.a.a.a.a."
};
