/* XPM */
static char *d29vZC1wbGFuaw__[] = {
/* columns rows colors chars-per-pixel */
"32 32 91 1 ",
"  c #5F266D",
". c #62286D",
"X c #65296C",
"o c #64296D",
"O c #652B6C",
"+ c #652A6D",
"@ c #642B6D",
"# c #652B6D",
"$ c #632C6D",
"% c #652C6C",
"& c #662C6D",
"* c #672C6E",
"= c #662D6E",
"- c #6A2F6D",
"; c #692E6E",
": c #682E6F",
"> c #692E6F",
", c #6C306D",
"< c #6C316D",
"1 c #6F336C",
"2 c #703668",
"3 c #71346D",
"4 c #72356C",
"5 c #74376D",
"6 c #76386D",
"7 c #77396D",
"8 c #783A6C",
"9 c #783A6D",
"0 c #7B3B6C",
"q c #7D3D6C",
"w c #7D3E6C",
"e c #7E3F6D",
"r c #7F3F6D",
"t c #7E4362",
"y c #7F4465",
"u c #7F4375",
"i c #9C5D5D",
"p c #80416D",
"a c #81416D",
"s c #87476D",
"d c #89476C",
"f c #88476D",
"g c #8B496D",
"h c #8E4B6C",
"j c #8E4C6C",
"k c #8E4C6D",
"l c #8F4C6D",
"z c #8F4D6D",
"x c #934F6C",
"c c #95506C",
"v c #98536C",
"b c #99546C",
"n c #99556D",
"m c #9B556C",
"M c #9C566C",
"N c #9C576C",
"B c #9E586C",
"V c #9E586D",
"C c #8F5076",
"Z c #965677",
"A c #9B5C7B",
"S c #A15A6C",
"D c #A25B6C",
"F c #A55E6C",
"G c #A55E6D",
"H c #A65E6C",
"J c #A7606D",
"K c #A8606C",
"L c #AC636C",
"P c #AD646C",
"I c #AE656C",
"U c #AF656C",
"Y c #AF666C",
"T c #B0666C",
"R c #B2676C",
"E c #B1686C",
"W c #B2686C",
"Q c #B3696C",
"! c #B4696C",
"~ c #B56A6C",
"^ c #B46B6C",
"/ c #B56B6C",
"( c #B66A6C",
") c #B66B6C",
"_ c #B76C6C",
"` c #B9757E",
"' c #BB767E",
"] c #BD787E",
"[ c #BE797E",
"{ c #C68080",
"} c None",
/* pixels */
"};O.OOooOOoOoooooooXOooOooooo%%}",
"=uZOhhhhkh66hxhhx-0x96hhhxhhhp2=",
"=A`;______gg_____av_gg_______it$",
"=A[9______gg_____HT_gg_______it$",
"*A{T____x_gg_____xH^hg_______it$",
"*A]-____ _gg_____rb_gg_T4____it$",
"*A]3____._gg_____rc_gg_L-____it$",
"*A{_____I_gg_____rb_gg_L-____it$",
"*A{^____6_kg_____yv_gg_L-____it$",
"*A{^____ ^gg_____wv_gg_L-____it$",
":A{_____._gg_____ev_gg_L-____it$",
"=A{_____ ^gg_____SP_gg_L-____it$",
"=A{_____ ^gg________gg_L-____it$",
"=A{_____._gg________gg_L-____it$",
"=A{_____ _hg________gg_L-____it$",
"=A{^____ ^gg________gg_L-____it$",
"*A{_____ _gg_H______gg_L>____it.",
"*A{_____ _gg_6S_____gg_K;____it$",
"*A{_____ _gg_0H_____gg__m___^it$",
"*A{__sH_ _gk^_______gg__x____it$",
"*A{^_0b_ _gg_9H_____gg_L<__bSit=",
"=A{^_rb^l_gg_mR_____gg_L<__skit.",
":A{^_0n___gg________gg__Q^_gkit$",
":A{__rn___gg________gg____^vBit$",
":A{__aB___gg_____e__gg_____IIit=",
"=A{_______gg_____OT_gg_____ghit.",
"=A{^_uB___gg_____*T_gg_____cbit$",
"=A{^_yB___gg_____r__gg_______it$",
"*A{__T____gg_____G__gg_______it$",
"*A{_______gg_____OT_gg_____^_it$",
"*uZkkhhhkk76kkkkk.kk59khkkhhky2$",
"}>*ooo.*ooooooooooo.o.*oOOO.O%=}"
};
